<?xml version="1.0" encoding="UTF-8"?>
<svg version="1.1" xmlns="http://www.w3.org/2000/svg" width="500" height="500">
<path d="M0 0 C18.46583606 14.05339611 31.43660088 32.73671385 35 56 C36.03703023 64.44718557 36.14634941 72.84624123 36.1328125 81.34765625 C36.13348785 82.69477862 36.13445979 84.04190087 36.13571167 85.38902283 C36.13717322 88.18668805 36.13508123 90.984321 36.13037109 93.78198242 C36.12462463 97.36982515 36.12799324 100.95759386 36.13394356 104.545434 C36.13754874 107.31545068 36.13641165 110.08544964 36.13381577 112.85546684 C36.13282541 114.82202579 36.1358594 116.78858543 36.13894653 118.75514221 C36.13421829 120.53355751 36.13421829 120.53355751 36.12939453 122.34790039 C36.12859894 123.39393936 36.12780334 124.43997833 36.12698364 125.51771545 C36 128 36 128 35 130 C20.48 130 5.96 130 -9 130 C-9.04898438 125.43542969 -9.09796875 120.87085938 -9.1484375 116.16796875 C-9.18387212 113.25583879 -9.21985951 110.34373621 -9.2578125 107.43164062 C-9.31784519 102.82141286 -9.37596064 98.21122289 -9.421875 93.60083008 C-9.45907023 89.87891314 -9.50551671 86.15721083 -9.55806351 82.43548012 C-9.5764275 81.02394737 -9.59159987 79.61236895 -9.60334396 78.20076561 C-9.73255856 63.19020647 -11.02139263 49.33539403 -21.5 37.6875 C-32.30388275 27.75456365 -45.86852981 24.44851501 -60.15625 24.69140625 C-71.57664715 25.60828773 -82.24270984 30.14578577 -90.3203125 38.359375 C-96.67999531 45.91589849 -101.02920255 54.06333896 -101.20532227 64.04956055 C-101.22526749 65.05548752 -101.24521271 66.06141449 -101.26576233 67.0978241 C-101.28247482 68.18315933 -101.29918732 69.26849457 -101.31640625 70.38671875 C-101.33718735 71.51713089 -101.35796844 72.64754303 -101.37937927 73.81221008 C-101.422642 76.21208971 -101.46368411 78.61201023 -101.50268555 81.01196289 C-101.56154014 84.62851734 -101.62679646 88.2449082 -101.69335938 91.86132812 C-101.89651451 103.29178893 -102.05241557 114.71181602 -101.91772461 126.14379883 C-102 129 -102 129 -103 130 C-104.38160115 130.0927833 -105.76788038 130.11747043 -107.15258789 130.11352539 C-108.03342545 130.11344986 -108.914263 130.11337433 -109.8217926 130.11329651 C-110.77907761 130.10813522 -111.73636261 130.10297394 -112.72265625 130.09765625 C-113.69786728 130.0962413 -114.67307831 130.09482635 -115.67784119 130.09336853 C-118.80609143 130.08775133 -121.93427123 130.07519593 -125.0625 130.0625 C-127.17773334 130.05748722 -129.29296781 130.05292393 -131.40820312 130.04882812 C-136.60549296 130.03777631 -141.80274145 130.02102146 -147 130 C-147.09338604 120.75838188 -147.16410821 111.51693044 -147.20724869 102.27494049 C-147.22797188 97.98178741 -147.25600356 93.68896116 -147.30175781 89.39599609 C-147.34576913 85.23973968 -147.3692513 81.08379416 -147.37950897 76.92732239 C-147.38680266 75.35515967 -147.40103956 73.78301064 -147.42292023 72.21098328 C-147.70531612 51.04716549 -141.81066596 32.94674485 -129 16 C-128.45730469 15.27039063 -127.91460937 14.54078125 -127.35546875 13.7890625 C-96.55245105 -24.42227591 -38.26566102 -27.84437461 0 0 Z " fill="#9B0102" transform="translate(306,226)"/>
<path d="M0 0 C7.37573928 5.35414961 12.05616934 12.34651205 14.0390625 21.26953125 C15.40118863 32.84760333 13.41887175 42.00456452 6.4140625 51.45703125 C0.69412332 57.71279612 -6.94553864 61.98506372 -15.43359375 62.6953125 C-25.849996 62.93578837 -34.61321119 60.90847654 -42.8046875 54.2109375 C-50.09179934 47.03568922 -53.57665728 38.15135368 -54.0234375 28.01953125 C-53.72203203 18.74148469 -50.10955289 10.08235111 -43.5859375 3.45703125 C-30.75762421 -7.37686097 -14.43476361 -8.61288765 0 0 Z " fill="#9B0202" transform="translate(269.5859375,137.54296875)"/>
<path d="M0 0 C1.8125 0.1875 1.8125 0.1875 4 1 C7.52227176 5.45675202 7.94301017 10.35697618 8.6875 15.8125 C8.81705078 16.69615234 8.94660156 17.57980469 9.08007812 18.49023438 C9.39659129 20.65893571 9.70289706 22.82856917 10 25 C10.09087891 23.08574219 10.09087891 23.08574219 10.18359375 21.1328125 C10.26799568 19.46352984 10.35264386 17.79425963 10.4375 16.125 C10.47681641 15.28324219 10.51613281 14.44148438 10.55664062 13.57421875 C10.61948242 12.36572266 10.61948242 12.36572266 10.68359375 11.1328125 C10.72025146 10.38918457 10.75690918 9.64555664 10.79467773 8.87939453 C11 7 11 7 12 5 C14.375 4.875 14.375 4.875 17 5 C22.9698718 10.9698718 21.43192231 23.81339834 21.625 31.625 C21.68300781 33.56052734 21.68300781 33.56052734 21.7421875 35.53515625 C21.83566342 38.6899687 21.92142313 41.84478727 22 45 C26.24620326 42.16919783 26.88162324 38.61834549 28.62109375 33.9453125 C30.053083 30.88661592 31.42311856 29.15411183 34 27 C36.5625 26.125 36.5625 26.125 39 26 C39.99 26.66 40.98 27.32 42 28 C41.19218026 31.38881082 40.11603209 34.64517593 38.98242188 37.93945312 C36.64113635 44.74471302 34.5774471 51.47765232 33 58.5 C30.47994906 69.2892976 25.63367174 77.15295622 16.234375 83.12109375 C13.11670994 84.34744801 10.21195747 84.39878706 6.875 84.5625 C2.27366821 84.63762616 2.27366821 84.63762616 -2 86 C-5.58370253 86.27046812 -8.30290045 86.25938588 -11.6875 85 C-17.13500743 80.28864222 -19.00051475 72.54822562 -20.875 65.8125 C-21.1121875 65.03197266 -21.349375 64.25144531 -21.59375 63.44726562 C-22.62810652 59.77405375 -23.19562285 57.68820472 -22.1328125 53.94921875 C-21.57207031 52.98435547 -21.57207031 52.98435547 -21 52 C-18.11424181 52.39803561 -17.17810487 52.79009069 -15.25 55.0625 C-14.63125 56.0215625 -14.63125 56.0215625 -14 57 C-14.42941881 50.88749169 -15.69245005 47.04338567 -19 41.9375 C-21.93324934 37.37865619 -23.78323294 33.53433413 -24 28 C-22 26 -22 26 -19.64453125 25.5 C-17 26 -17 26 -14.76171875 28.625 C-14.07722656 29.73875 -13.39273438 30.8525 -12.6875 32 C-11.99011719 33.11375 -11.29273438 34.2275 -10.57421875 35.375 C-10.05472656 36.24125 -9.53523437 37.1075 -9 38 C-9.2165625 36.90042969 -9.433125 35.80085938 -9.65625 34.66796875 C-13.04042631 16.93167141 -13.04042631 16.93167141 -12 10 C-11.34 9.34 -10.68 8.68 -10 8 C-7.5 8.125 -7.5 8.125 -5 9 C-3.84375 11.0546875 -3.84375 11.0546875 -3 13 C-3.05220703 12.09507812 -3.05220703 12.09507812 -3.10546875 11.171875 C-3.32933105 4.5626072 -3.32933105 4.5626072 -1.5 1.4375 C-1.005 0.963125 -0.51 0.48875 0 0 Z M-1 25 C0 27 0 27 0 27 Z M10 27 C11 30 11 30 11 30 Z " fill="#17323E" transform="translate(243,258)"/>
<path d="M0 0 C0 20.13 0 40.26 0 61 C-13 67 -13 67 -16.875 68.765625 C-24.46728665 72.37196116 -30.7660985 76.56894638 -37.2578125 81.86328125 C-39.51219935 83.61990462 -41.45004828 84.79175185 -44 86 C-44.10243299 79.68707332 -44.17189283 73.37436524 -44.21972656 67.06079102 C-44.2396927 64.91845695 -44.26687538 62.77617632 -44.30175781 60.6340332 C-44.57495119 43.41079808 -44.16753014 29.43540723 -32 16 C-25.19705088 9.38515085 -10.17499156 -3.39166385 0 0 Z " fill="#9B0202" transform="translate(204,140)"/>
<path d="M0 0 C1.60415926 0.47095771 3.20752358 0.9446237 4.81054688 1.41943359 C5.70350464 1.68291595 6.5964624 1.94639832 7.51647949 2.21786499 C16.91685208 5.17832394 24.12065294 11.14487599 31 18 C31.88171875 18.84691406 31.88171875 18.84691406 32.78125 19.7109375 C39.51275442 26.75154161 43.14076816 37.027303 43.11352539 46.69848633 C43.11344986 47.59904251 43.11337433 48.49959869 43.11329651 49.42744446 C43.10813522 50.3859581 43.10297394 51.34447174 43.09765625 52.33203125 C43.0962413 53.32377853 43.09482635 54.31552582 43.09336853 55.33732605 C43.08778418 58.49574843 43.07523452 61.65409915 43.0625 64.8125 C43.05748298 66.95768127 43.05292042 69.10286365 43.04882812 71.24804688 C43.03781988 76.49872224 43.0210973 81.749356 43 87 C40.15062989 85.68867698 38.47126598 84.52751428 36.0625 82.375 C25.80884433 73.44649898 12.84297719 67.2809924 0 63 C-1.35852482 60.28295036 -1.07803404 58.21383805 -1.02172852 55.17333984 C-1.00163223 53.95222504 -0.98153595 52.73111023 -0.96083069 51.47299194 C-0.93363242 50.13563822 -0.90632161 48.79828679 -0.87890625 47.4609375 C-0.85460701 46.09616882 -0.83076335 44.73139196 -0.80735779 43.36660767 C-0.74449724 39.77277311 -0.67543627 36.17908322 -0.60510254 32.58538818 C-0.53443683 28.9189717 -0.46960933 25.25245256 -0.40429688 21.5859375 C-0.27525916 14.39051147 -0.13967382 7.19522825 0 0 Z " fill="#9C0202" transform="translate(297,139)"/>
<path d="M0 0 C1.32 0 2.64 0 4 0 C5.32229189 2.64458379 5.09677194 4.67761301 5.0625 7.625 C5.05347656 8.62789063 5.04445312 9.63078125 5.03515625 10.6640625 C5.02355469 11.43492187 5.01195312 12.20578125 5 13 C5.04898438 12.22914063 5.09796875 11.45828125 5.1484375 10.6640625 C5.22320312 9.66117187 5.29796875 8.65828125 5.375 7.625 C5.44460937 6.62726563 5.51421875 5.62953125 5.5859375 4.6015625 C6 2 6 2 8 0 C9.32 0.33 10.64 0.66 12 1 C11.67 7.93 11.34 14.86 11 22 C12.32 19.36 13.64 16.72 15 14 C16.32 13.67 17.64 13.34 19 13 C20.66326993 17.48009803 19.36516688 20.22097251 17.49707031 24.33398438 C17.12678711 25.11064453 16.75650391 25.88730469 16.375 26.6875 C16.0047168 27.48607422 15.63443359 28.28464844 15.25292969 29.10742188 C14.51517898 30.69098094 13.77118337 32.27164791 13.02050781 33.84912109 C12.15779184 35.66742915 11.32192532 37.49843964 10.4921875 39.33203125 C10.08226562 40.21246094 9.67234375 41.09289062 9.25 42 C8.90453125 42.7425 8.5590625 43.485 8.203125 44.25 C6.70739378 46.42560905 5.45886999 47.08776386 3 48 C-0.63473046 48.33043004 -3.25786726 48.27614241 -6.6875 47 C-12.13500743 42.28864222 -14.00051475 34.54822562 -15.875 27.8125 C-16.1121875 27.03197266 -16.349375 26.25144531 -16.59375 25.44726562 C-17.62810652 21.77405375 -18.19562285 19.68820472 -17.1328125 15.94921875 C-16.75898438 15.30597656 -16.38515625 14.66273438 -16 14 C-13.11424181 14.39803561 -12.17810487 14.79009069 -10.25 17.0625 C-9.8375 17.701875 -9.425 18.34125 -9 19 C-9.020625 18.195625 -9.04125 17.39125 -9.0625 16.5625 C-9 14 -9 14 -8 13 C-7.60851239 11.48834346 -7.26027543 9.96530368 -6.9375 8.4375 C-6.76089844 7.61121094 -6.58429688 6.78492188 -6.40234375 5.93359375 C-6.26957031 5.29550781 -6.13679687 4.65742188 -6 4 C-4.68 4.33 -3.36 4.66 -2 5 C-1.34 3.35 -0.68 1.7 0 0 Z " fill="#F18F06" transform="translate(238,296)"/>
<path d="M0 0 C2.70703125 0.4375 2.70703125 0.4375 4.9453125 3.0625 C5.62980469 4.17625 6.31429687 5.29 7.01953125 6.4375 C7.71691406 7.55125 8.41429687 8.665 9.1328125 9.8125 C9.65230469 10.67875 10.17179688 11.545 10.70703125 12.4375 C11.03703125 11.1175 11.36703125 9.7975 11.70703125 8.4375 C12.70283203 8.76234375 12.70283203 8.76234375 13.71875 9.09375 C14.60175781 9.3721875 15.48476562 9.650625 16.39453125 9.9375 C17.26464844 10.2159375 18.13476562 10.494375 19.03125 10.78125 C21.70011509 11.43580378 23.97492617 11.47577818 26.70703125 11.4375 C27.70703125 12.4375 27.70703125 12.4375 27.8046875 15.59765625 C27.79308594 16.88542969 27.78148437 18.17320312 27.76953125 19.5 C27.76050781 20.79035156 27.75148437 22.08070313 27.7421875 23.41015625 C27.73058594 24.40917969 27.71898437 25.40820312 27.70703125 26.4375 C28.36703125 26.4375 29.02703125 26.4375 29.70703125 26.4375 C28.37369792 29.77083333 27.04036458 33.10416667 25.70703125 36.4375 C24.71412999 33.45879623 24.65178577 31.84567115 24.828125 28.76953125 C24.87646484 27.87685547 24.92480469 26.98417969 24.97460938 26.06445312 C25.03068359 25.13568359 25.08675781 24.20691406 25.14453125 23.25 C25.19673828 22.30962891 25.24894531 21.36925781 25.30273438 20.40039062 C25.43235043 18.07908499 25.56731306 15.75821591 25.70703125 13.4375 C24.38703125 13.7675 23.06703125 14.0975 21.70703125 14.4375 C21.65804687 15.19675781 21.6090625 15.95601563 21.55859375 16.73828125 C21.48382813 17.73214844 21.4090625 18.72601563 21.33203125 19.75 C21.26242188 20.73613281 21.1928125 21.72226562 21.12109375 22.73828125 C20.70703125 25.4375 20.70703125 25.4375 18.70703125 28.4375 C18.70703125 23.1575 18.70703125 17.8775 18.70703125 12.4375 C17.38703125 12.4375 16.06703125 12.4375 14.70703125 12.4375 C14.37703125 16.3975 14.04703125 20.3575 13.70703125 24.4375 C13.37703125 24.4375 13.04703125 24.4375 12.70703125 24.4375 C12.37703125 22.1275 12.04703125 19.8175 11.70703125 17.4375 C10.71703125 17.1075 9.72703125 16.7775 8.70703125 16.4375 C8.65804687 17.07558594 8.6090625 17.71367187 8.55859375 18.37109375 C8.48382813 19.19738281 8.4090625 20.02367187 8.33203125 20.875 C8.26242188 21.69871094 8.1928125 22.52242188 8.12109375 23.37109375 C7.98445312 24.05300781 7.8478125 24.73492187 7.70703125 25.4375 C7.04703125 25.7675 6.38703125 26.0975 5.70703125 26.4375 C-4.41480568 8.38689082 -4.41480568 8.38689082 -4.10546875 3.4375 C-3.0104805 0.74214432 -2.90063631 0.55344338 0 0 Z " fill="#19323D" transform="translate(223.29296875,283.5625)"/>
<path d="M0 0 C2.33590444 1.73309039 3.80535448 3.13080708 4.453125 6.0234375 C4.60523891 7.50908336 4.73056244 8.99780792 4.82421875 10.48828125 C4.95841226 13.05908944 4.95841226 13.05908944 5.50488281 15.79394531 C6.36590914 21.75660215 6.1219582 27.79913673 6.09765625 33.80859375 C6.09578833 35.14380337 6.0943662 36.47901369 6.09336853 37.81422424 C6.08957277 41.30762668 6.079768 44.80098673 6.06866455 48.29437256 C6.05838681 51.8674664 6.05380233 55.44056737 6.04882812 59.01367188 C6.03867503 66.00915187 6.01909595 73.00451587 6 80 C19.53 80 33.06 80 47 80 C47 71.75 47 63.5 47 55 C47.33 55 47.66 55 48 55 C48.19625099 58.95795086 48.38051982 62.91636935 48.5625 66.875 C48.64661133 68.56689453 48.64661133 68.56689453 48.73242188 70.29296875 C48.78076172 71.36933594 48.82910156 72.44570313 48.87890625 73.5546875 C48.9260376 74.54968262 48.97316895 75.54467773 49.02172852 76.56982422 C49 79 49 79 48 81 C33.48 81 18.96 81 4 81 C3.95101563 76.43542969 3.90203125 71.87085938 3.8515625 67.16796875 C3.81612788 64.25583879 3.78014049 61.34373621 3.7421875 58.43164062 C3.68215481 53.82141286 3.62403936 49.21122289 3.578125 44.60083008 C3.54092977 40.87891314 3.49448329 37.15721083 3.44193649 33.43548012 C3.4235725 32.02394737 3.40840013 30.61236895 3.39665604 29.20076561 C3.32528567 20.90983607 2.78915607 13.09997175 1 5 C0.66433532 3.3338013 0.33035477 1.66725961 0 0 Z " fill="#810A0A" transform="translate(293,275)"/>
<path d="M0 0 C0.639375 0.66 1.27875 1.32 1.9375 2 C3.64082319 4.11602431 3.64082319 4.11602431 5 4 C5.66 3.34 6.32 2.68 7 2 C7.59167969 2.2165625 8.18335938 2.433125 8.79296875 2.65625 C13.00744281 4.14128491 16.47502336 5.28281104 21 5 C22 6 22 6 22.09765625 9.16015625 C22.08605469 10.44792969 22.07445312 11.73570312 22.0625 13.0625 C22.05347656 14.35285156 22.04445312 15.64320313 22.03515625 16.97265625 C22.02355469 17.97167969 22.01195312 18.97070312 22 20 C22.66 20 23.32 20 24 20 C22.66666667 23.33333333 21.33333333 26.66666667 20 30 C19.00709874 27.02129623 18.94475452 25.40817115 19.12109375 22.33203125 C19.16943359 21.43935547 19.21777344 20.54667969 19.26757812 19.62695312 C19.32365234 18.69818359 19.37972656 17.76941406 19.4375 16.8125 C19.48970703 15.87212891 19.54191406 14.93175781 19.59570312 13.96289062 C19.72531918 11.64158499 19.86028181 9.32071591 20 7 C18.68 7.33 17.36 7.66 16 8 C15.95101562 8.75925781 15.90203125 9.51851563 15.8515625 10.30078125 C15.77679688 11.29464844 15.70203125 12.28851563 15.625 13.3125 C15.55539063 14.29863281 15.48578125 15.28476562 15.4140625 16.30078125 C15 19 15 19 13 22 C13 16.72 13 11.44 13 6 C11.68 6 10.36 6 9 6 C8.67 9.96 8.34 13.92 8 18 C7.67 18 7.34 18 7 18 C6.67 15.69 6.34 13.38 6 11 C5.01 10.67 4.02 10.34 3 10 C2.95101562 10.63808594 2.90203125 11.27617187 2.8515625 11.93359375 C2.77679688 12.75988281 2.70203125 13.58617187 2.625 14.4375 C2.52058594 15.67306641 2.52058594 15.67306641 2.4140625 16.93359375 C2.27742187 17.61550781 2.14078125 18.29742187 2 19 C1.34 19.33 0.68 19.66 0 20 C0.01160156 19.30132812 0.02320313 18.60265625 0.03515625 17.8828125 C0.04417969 16.97273438 0.05320313 16.06265625 0.0625 15.125 C0.07410156 14.22007812 0.08570313 13.31515625 0.09765625 12.3828125 C0.16249257 9.9831415 0.16249257 9.9831415 -1 8 C-0.01 7.01 0.98 6.02 2 5 C1.34 4.67 0.68 4.34 0 4 C0 2.68 0 1.36 0 0 Z " fill="#303124" transform="translate(229,290)"/>
<path d="M0 0 C1.32 0 2.64 0 4 0 C5.32229189 2.64458379 5.09677194 4.67761301 5.0625 7.625 C5.05347656 8.62789063 5.04445312 9.63078125 5.03515625 10.6640625 C5.02355469 11.43492187 5.01195312 12.20578125 5 13 C5.04898438 12.22914063 5.09796875 11.45828125 5.1484375 10.6640625 C5.26058594 9.15972656 5.26058594 9.15972656 5.375 7.625 C5.44460937 6.62726563 5.51421875 5.62953125 5.5859375 4.6015625 C6 2 6 2 8 0 C10.125 0.375 10.125 0.375 12 1 C11.89013032 4.27152618 11.7595003 7.54190114 11.625 10.8125 C11.57859375 12.2056543 11.57859375 12.2056543 11.53125 13.62695312 C11.47324219 14.9659668 11.47324219 14.9659668 11.4140625 16.33203125 C11.3826416 17.15421143 11.3512207 17.9763916 11.31884766 18.82348633 C11 21 11 21 9 24 C8.67 19.38 8.34 14.76 8 10 C8 12.97 8 15.94 8 19 C7.01 19.33 6.02 19.66 5 20 C2.47224649 16.20836973 2.77556965 13.19125969 2.875 8.8125 C2.88402344 8.06291016 2.89304688 7.31332031 2.90234375 6.54101562 C2.92587422 4.69387346 2.96174439 2.84689588 3 1 C2.34 1 1.68 1 1 1 C1 4.63 1 8.26 1 12 C0.01 12.495 0.01 12.495 -1 13 C-1.02696365 11.20841511 -1.04637917 9.41671527 -1.0625 7.625 C-1.07410156 6.62726563 -1.08570313 5.62953125 -1.09765625 4.6015625 C-1 2 -1 2 0 0 Z " fill="#D98E21" transform="translate(238,296)"/>
<path d="M0 0 C1.8125 0.1875 1.8125 0.1875 4 1 C6.14197494 3.90696599 7 5.35521088 7 9 C5.68 9.33 4.36 9.66 3 10 C3 12.64 3 15.28 3 18 C3.66 18 4.32 18 5 18 C5 20.64 5 23.28 5 26 C2.47250696 22.20876044 1.48827332 18.47625093 0.25 14.125 C0.00378906 13.32191406 -0.24242187 12.51882813 -0.49609375 11.69140625 C-2.1997762 5.71374587 -2.1997762 5.71374587 -1.140625 1.9296875 C-0.76421875 1.29289062 -0.3878125 0.65609375 0 0 Z " fill="#E89D1D" transform="translate(222,310)"/>
<path d="M0 0 C2.4100168 1.78807698 3.82780475 3.17761923 4.453125 6.1640625 C4.60644762 7.73306401 4.73133381 9.30516994 4.82421875 10.87890625 C4.93135396 13.18872163 4.93135396 13.18872163 6 16 C6.06114395 18.10158088 6.05832303 20.20522139 6.02172852 22.30737305 C5.99158409 24.25905647 5.99158409 24.25905647 5.96083069 26.25016785 C5.93363419 27.67068696 5.90632335 29.09120388 5.87890625 30.51171875 C5.85460066 31.96473955 5.83075732 33.41776816 5.80735779 34.87080383 C5.74456043 38.69313448 5.67548154 42.51532685 5.60510254 46.33752441 C5.53437978 50.23862415 5.46958642 54.13982184 5.40429688 58.04101562 C5.2753406 65.69411877 5.13974941 73.34708553 5 81 C4.67 81 4.34 81 4 81 C3.99191315 80.21010178 3.98382629 79.42020355 3.97549438 78.60636902 C3.89717011 71.11914009 3.8097694 63.63209555 3.71247292 56.14509106 C3.66277812 52.29703987 3.6164486 48.44901264 3.578125 44.60083008 C3.54092977 40.87891314 3.49448329 37.15721083 3.44193649 33.43548012 C3.4235725 32.02394737 3.40840013 30.61236895 3.39665604 29.20076561 C3.32528567 20.90983607 2.78915607 13.09997175 1 5 C0.66433532 3.3338013 0.33035477 1.66725961 0 0 Z " fill="#6E1111" transform="translate(293,275)"/>
<path d="M0 0 C1.81242052 -0.02687279 3.62495233 -0.04633715 5.4375 -0.0625 C6.44683594 -0.07410156 7.45617187 -0.08570313 8.49609375 -0.09765625 C11 0 11 0 12 1 C12.07271741 3.35313555 12.08370868 5.70833668 12.0625 8.0625 C12.05347656 9.35285156 12.04445312 10.64320313 12.03515625 11.97265625 C12.02355469 12.97167969 12.01195312 13.97070312 12 15 C12.66 15 13.32 15 14 15 C12.66666667 18.33333333 11.33333333 21.66666667 10 25 C9.00709874 22.02129623 8.94475452 20.40817115 9.12109375 17.33203125 C9.16943359 16.43935547 9.21777344 15.54667969 9.26757812 14.62695312 C9.32365234 13.69818359 9.37972656 12.76941406 9.4375 11.8125 C9.48970703 10.87212891 9.54191406 9.93175781 9.59570312 8.96289062 C9.72531918 6.64158499 9.86028181 4.32071591 10 2 C8.68 2.33 7.36 2.66 6 3 C5.95101562 3.75925781 5.90203125 4.51851563 5.8515625 5.30078125 C5.77679688 6.29464844 5.70203125 7.28851563 5.625 8.3125 C5.55539063 9.29863281 5.48578125 10.28476562 5.4140625 11.30078125 C5 14 5 14 3 17 C3 11.72 3 6.44 3 1 C2.01 0.67 1.02 0.34 0 0 Z " fill="#433113" transform="translate(239,295)"/>
<path d="M0 0 C4.42835428 6.64253141 4.27974442 13.91162931 4.1953125 21.625 C4.1924826 22.61250244 4.18965271 23.60000488 4.18673706 24.61743164 C4.1756182 27.74508215 4.15052916 30.87243728 4.125 34 C4.11495948 36.13150626 4.10583551 38.26301704 4.09765625 40.39453125 C4.07570612 45.5964535 4.04231207 50.79820564 4 56 C0.67364118 54.47427344 -0.95563002 53.06655496 -3 50 C-1 51 1 52 3 53 C2.90598588 47.30717747 2.79978809 41.61475637 2.68261719 35.92236328 C2.64448935 33.9885062 2.6096091 32.05458212 2.578125 30.12060547 C2.53212077 27.3301611 2.47418688 24.54017165 2.4140625 21.75 C2.40251129 20.89446533 2.39096008 20.03893066 2.37905884 19.1574707 C2.24910554 13.79282983 1.38578293 9.17914664 0 4 C0 2.68 0 1.36 0 0 Z " fill="#7F0F0D" transform="translate(336,170)"/>
<path d="M0 0 C0.33 0 0.66 0 1 0 C1 7.59 1 15.18 1 23 C1.66 23 2.32 23 3 23 C3.33 23.99 3.66 24.98 4 26 C3.34 26.33 2.68 26.66 2 27 C1.67 32.94 1.34 38.88 1 45 C2.65 45.33 4.3 45.66 6 46 C3 47 3 47 0 46 C-1.17719326 43.64561349 -1.08905996 42.35233185 -1.02172852 39.73388672 C-1.00163223 38.85312469 -0.98153595 37.97236267 -0.96083069 37.06491089 C-0.93379562 36.11278717 -0.90676056 35.16066345 -0.87890625 34.1796875 C-0.85529526 33.20589142 -0.83168427 32.23209534 -0.80735779 31.22879028 C-0.73062849 28.11071528 -0.646644 24.99288288 -0.5625 21.875 C-0.5092886 19.76433489 -0.45654814 17.65365785 -0.40429688 15.54296875 C-0.27500087 10.36182823 -0.13974366 5.18086868 0 0 Z M3 22 C5 23 5 23 5 23 Z " fill="#730707" transform="translate(297,156)"/>
<path d="M0 0 C0.33 0 0.66 0 1 0 C0.83701416 1.28189209 0.67402832 2.56378418 0.50610352 3.88452148 C-0.04757808 8.88767648 -0.12818046 13.81848777 -0.09765625 18.84765625 C-0.0962413 19.74495956 -0.09482635 20.64226288 -0.09336853 21.5667572 C-0.0878251 24.39870714 -0.07528358 27.23057445 -0.0625 30.0625 C-0.05747767 31.99674364 -0.05291606 33.93098853 -0.04882812 35.86523438 C-0.03787429 40.57685417 -0.02064953 45.28841313 0 50 C0.99 50.33 1.98 50.66 3 51 C1.625 52.5 1.625 52.5 0 54 C-0.66 54 -1.32 54 -2 54 C-2.05092721 47.59541235 -2.08582866 41.19087741 -2.10986328 34.78613281 C-2.11988854 32.60968067 -2.13351222 30.43324188 -2.15087891 28.25683594 C-2.17528028 25.11910697 -2.18651813 21.98155692 -2.1953125 18.84375 C-2.20563507 17.87884644 -2.21595764 16.91394287 -2.22659302 15.9197998 C-2.22752214 10.25907247 -1.61489521 5.43141227 0 0 Z " fill="#7E0C0C" transform="translate(162,172)"/>
<path d="M0 0 C0.99 0 1.98 0 3 0 C3.33 5.94 3.66 11.88 4 18 C3.34 18 2.68 18 2 18 C1.67 16.35 1.34 14.7 1 13 C-0.98 13.99 -0.98 13.99 -3 15 C-3.042721 13.33388095 -3.04063832 11.66617115 -3 10 C-2.67 9.67 -2.34 9.34 -2 9 C-1.60851239 7.48834346 -1.26027543 5.96530368 -0.9375 4.4375 C-0.76089844 3.61121094 -0.58429688 2.78492188 -0.40234375 1.93359375 C-0.26957031 1.29550781 -0.13679687 0.65742188 0 0 Z " fill="#E2921C" transform="translate(232,300)"/>
<path d="M0 0 C0.33 0.99 0.66 1.98 1 3 C0.38125 3.185625 -0.2375 3.37125 -0.875 3.5625 C-4.04162301 5.70462733 -4.09921668 8.39686674 -5 12 C-5.66 12.66 -6.32 13.32 -7 14 C-8.32 14 -9.64 14 -11 14 C-11.66 16.31 -12.32 18.62 -13 21 C-13.66 21 -14.32 21 -15 21 C-12.63377546 12.7182141 -7.22008878 4.81339252 0 0 Z " fill="#860A0B" transform="translate(178,151)"/>
<path d="M0 0 C5.25103587 3.87576457 8.8295485 8.27744746 12 14 C12 14.66 12 15.32 12 16 C11.34 16 10.68 16 10 16 C9.67 15.34 9.34 14.68 9 14 C7.35 14.33 5.7 14.66 4 15 C3.67 14.01 3.34 13.02 3 12 C3.33 11.67 3.66 11.34 4 11 C4.04063832 9.33382885 4.042721 7.66611905 4 6 C3.01 5.67 2.02 5.34 1 5 C0.67 3.35 0.34 1.7 0 0 Z " fill="#930909" transform="translate(319,239)"/>
<path d="M0 0 C0.99 0.33 1.98 0.66 3 1 C2.49487476 7.22987798 -0.32604123 12.45474233 -3 18 C-3.33 18 -3.66 18 -4 18 C-4 16.02 -4 14.04 -4 12 C-3.34 12 -2.68 12 -2 12 C-2 10.68 -2 9.36 -2 8 C-1.34 8 -0.68 8 0 8 C0 6.68 0 5.36 0 4 C-1.65 5.32 -3.3 6.64 -5 8 C-3.8141763 4.62496331 -2.72426311 2.35277269 0 0 Z " fill="#CF8C25" transform="translate(255,309)"/>
<path d="M0 0 C0.66 0 1.32 0 2 0 C2.08114106 1.77007714 2.13925505 3.54122098 2.1875 5.3125 C2.22230469 6.29863281 2.25710937 7.28476562 2.29296875 8.30078125 C1.95370576 11.42652422 1.31240476 12.01793877 -1 14 C-1.72197162 16.60611077 -1.72197162 16.60611077 -2 19 C-2.66 18.67 -3.32 18.34 -4 18 C-4 13.38 -4 8.76 -4 4 C-3.67 4 -3.34 4 -3 4 C-2.67 6.31 -2.34 8.62 -2 11 C-1.67 11 -1.34 11 -1 11 C-0.67 7.37 -0.34 3.74 0 0 Z " fill="#DF8304" transform="translate(239,297)"/>
<path d="M0 0 C8.11728405 1.21759261 18.0859627 4.0859627 24 10 C19.87457432 9.3098442 16.1548707 8.05112152 12.25 6.5625 C11.10015625 6.13066406 9.9503125 5.69882813 8.765625 5.25390625 C6 4 6 4 5 2 C3.02 2.66 1.04 3.32 -1 4 C-1 1 -1 1 0 0 Z " fill="#7F0D0C" transform="translate(273,211)"/>
<path d="M0 0 C2.375 -0.125 2.375 -0.125 5 0 C7.47619668 2.47619668 7.61597395 4.02734558 8.25 7.4375 C8.44078125 8.40558594 8.6315625 9.37367188 8.828125 10.37109375 C9 13 9 13 7 16 C5.10344828 9.42528736 5.10344828 9.42528736 4.4375 6.6875 C4.03640914 4.89912329 4.03640914 4.89912329 3 3 C2.01 3 1.02 3 0 3 C0 2.01 0 1.02 0 0 Z " fill="#1B2E34" transform="translate(255,263)"/>
<path d="M0 0 C1.64630328 0.14042877 3.29204179 0.28749329 4.9375 0.4375 C6.31228516 0.55931641 6.31228516 0.55931641 7.71484375 0.68359375 C10 1 10 1 11 2 C12.68183948 2.23287008 14.3712416 2.41264166 16.0625 2.5625 C17.44115234 2.68818359 17.44115234 2.68818359 18.84765625 2.81640625 C19.91306641 2.90728516 19.91306641 2.90728516 21 3 C21 2.34 21 1.68 21 1 C23.31 1 25.62 1 28 1 C24.50534893 4.49465107 20.59384297 4.18145028 15.8125 4.25 C9.9006047 4.22330973 5.45385525 3.21851739 0 1 C0 0.67 0 0.34 0 0 Z " fill="#810B0B" transform="translate(235,196)"/>
<path d="M0 0 C0.66 0 1.32 0 2 0 C1.319375 1.85625 1.319375 1.85625 0.625 3.75 C-1.2725842 9.38879287 -2.15507005 15.12525178 -3 21 C-3.33 21 -3.66 21 -4 21 C-4 16 -4 11 -4 6 C-4.32380126 4.66431979 -4.65657551 3.33076989 -5 2 C-4.34 1.67 -3.68 1.34 -3 1 C-3 1.66 -3 2.32 -3 3 C-2.01 3 -1.02 3 0 3 C0 2.01 0 1.02 0 0 Z " fill="#820F0E" transform="translate(207,272)"/>
<path d="M0 0 C1.8125 0.1875 1.8125 0.1875 4 1 C6.14197494 3.90696599 7 5.35521088 7 9 C6.34 9 5.68 9 5 9 C4.67 7.35 4.34 5.7 4 4 C2.68 3.67 1.36 3.34 0 3 C0.350625 4.0725 0.70125 5.145 1.0625 6.25 C1.94680186 9.78720743 2.02880551 10.74811124 1 14 C0.4423576 12.23413239 -0.09562787 10.46204744 -0.625 8.6875 C-0.92664063 7.70136719 -1.22828125 6.71523438 -1.5390625 5.69921875 C-2 3 -2 3 0 0 Z " fill="#D6942E" transform="translate(222,310)"/>
<path d="M0 0 C3.83663072 1.34929464 6.65172569 3.07751025 9.8125 5.625 C10.99779297 6.57246094 10.99779297 6.57246094 12.20703125 7.5390625 C12.79871094 8.02117187 13.39039063 8.50328125 14 9 C7 9 7 9 4 8 C3.29788106 6.34795544 2.63028587 4.68076231 2 3 C1.34 2.67 0.68 2.34 0 2 C0 1.34 0 0.68 0 0 Z " fill="#8B0608" transform="translate(297,221)"/>
<path d="M0 0 C0.93423645 3.01031744 1.04449911 3.86650268 0 7 C0.99 6.67 1.98 6.34 3 6 C3 6.66 3 7.32 3 8 C2.01 8.33 1.02 8.66 0 9 C-0.33 9.66 -0.66 10.32 -1 11 C-1.66 11 -2.32 11 -3 11 C-3 12.98 -3 14.96 -3 17 C-4.32 17 -5.64 17 -7 17 C-5.49637741 13.21283842 -3.94512999 9.44754813 -2.375 5.6875 C-1.92898437 4.61886719 -1.48296875 3.55023438 -1.0234375 2.44921875 C-0.68570313 1.64097656 -0.34796875 0.83273437 0 0 Z " fill="#27302A" transform="translate(252,325)"/>
<path d="M0 0 C3.63 0 7.26 0 11 0 C10.67 0.66 10.34 1.32 10 2 C7.9375 2.625 7.9375 2.625 6 3 C5.95101562 3.75925781 5.90203125 4.51851563 5.8515625 5.30078125 C5.77679688 6.29464844 5.70203125 7.28851563 5.625 8.3125 C5.55539063 9.29863281 5.48578125 10.28476562 5.4140625 11.30078125 C5 14 5 14 3 17 C3 11.72 3 6.44 3 1 C2.01 0.67 1.02 0.34 0 0 Z " fill="#4F3515" transform="translate(239,295)"/>
<path d="M0 0 C2.475 0.99 2.475 0.99 5 2 C4.30058404 5.14737182 3.23921302 8.02588876 2 11 C1.34 10.67 0.68 10.34 0 10 C-0.40729228 7.67843403 -0.74438677 5.3431213 -1 3 C-0.34 3 0.32 3 1 3 C0.67 2.01 0.34 1.02 0 0 Z " fill="#1D2F37" transform="translate(280,284)"/>
<path d="M0 0 C-3.00577487 2.00384991 -5.84977264 3.26119742 -9.1875 4.625 C-10.27417969 5.07101563 -11.36085937 5.51703125 -12.48046875 5.9765625 C-13.72763672 6.48316406 -13.72763672 6.48316406 -15 7 C-15 5 -15 5 -13.125 2.375 C-8.78105992 -0.92639446 -5.27165728 -0.46063025 0 0 Z " fill="#840809" transform="translate(198,203)"/>
<path d="M0 0 C0.66 0.33 1.32 0.66 2 1 C0.60208101 3.79583797 -1.43631336 4.08558897 -4.21875 5.203125 C-6.39587727 6.17710299 -8.12422011 7.54106008 -10 9 C-10.66 9 -11.32 9 -12 9 C-12.33 9.99 -12.66 10.98 -13 12 C-13.99 11.34 -14.98 10.68 -16 10 C-13.70912072 8.51960151 -11.41734017 7.04063324 -9.125 5.5625 C-8.47402344 5.14162109 -7.82304687 4.72074219 -7.15234375 4.28710938 C-2.2265625 1.11328125 -2.2265625 1.11328125 0 0 Z " fill="#7E090C" transform="translate(207,218)"/>
<path d="M0 0 C3.71888239 0.50712033 6.73454239 1.11608215 10 3 C10 2.34 10 1.68 10 1 C11.98 0.67 13.96 0.34 16 0 C16 0.66 16 1.32 16 2 C12.34148709 4.34144827 9.27169964 4.44965259 5 4 C2.0625 2 2.0625 2 0 0 Z " fill="#DC9030" transform="translate(229,340)"/>
<path d="M0 0 C0 0.66 0 1.32 0 2 C-1.32 2 -2.64 2 -4 2 C-4 2.66 -4 3.32 -4 4 C-6.75 6.1875 -6.75 6.1875 -10 8 C-12.203125 7.61328125 -12.203125 7.61328125 -14 7 C-12.23462904 5.82508418 -10.46250287 4.66031316 -8.6875 3.5 C-7.70136719 2.8503125 -6.71523437 2.200625 -5.69921875 1.53125 C-3 0 -3 0 0 0 Z " fill="#81090D" transform="translate(193,143)"/>
<path d="M0 0 C5.02380113 1.56993785 9.0469983 4.60115742 13 8 C13.33 8.66 13.66 9.32 14 10 C9.64425364 9.51602818 7.9086741 8.20957142 5 5 C4.34 4.67 3.68 4.34 3 4 C3 3.34 3 2.68 3 2 C2.01 1.67 1.02 1.34 0 1 C0 0.67 0 0.34 0 0 Z " fill="#870B0E" transform="translate(311,145)"/>
<path d="M0 0 C2.4100168 1.78807698 3.82780475 3.17761923 4.453125 6.1640625 C4.60644762 7.73306401 4.73133381 9.30516994 4.82421875 10.87890625 C4.93135396 13.18872163 4.93135396 13.18872163 6 16 C5.01 16 4.02 16 3 16 C2.86722656 15.26394531 2.73445313 14.52789062 2.59765625 13.76953125 C2.42105469 12.79371094 2.24445313 11.81789063 2.0625 10.8125 C1.80146484 9.36810547 1.80146484 9.36810547 1.53515625 7.89453125 C1.0476265 5.25760028 0.53328895 2.6280095 0 0 Z " fill="#850E10" transform="translate(293,275)"/>
<path d="M0 0 C2.475 0.495 2.475 0.495 5 1 C5 3.31 5 5.62 5 8 C2.20127563 5.47211993 0.54226981 3.79588866 0 0 Z " fill="#1E2E2F" transform="translate(225,300)"/>
<path d="M0 0 C0.66 0.66 1.32 1.32 2 2 C1.96712417 4.72869407 1.43602229 7.2966618 1 10 C0.34 10 -0.32 10 -1 10 C-2.46726798 6.18510326 -1.43336419 3.70988378 0 0 Z " fill="#1D3746" transform="translate(253,288)"/>
<path d="M0 0 C0 0.99 0 1.98 0 3 C-6.4 7.06153846 -6.4 7.06153846 -9.4375 6.75 C-9.953125 6.5025 -10.46875 6.255 -11 6 C-11 5.34 -11 4.68 -11 4 C-9.9275 3.896875 -8.855 3.79375 -7.75 3.6875 C-4.14179128 3.02599507 -2.63604977 2.42516579 0 0 Z " fill="#17292E" transform="translate(264,335)"/>
<path d="M0 0 C2.475 0.495 2.475 0.495 5 1 C5 2.32 5 3.64 5 5 C3.35 4.67 1.7 4.34 0 4 C0 2.68 0 1.36 0 0 Z " fill="#F68E0F" transform="translate(222,313)"/>
<path d="M0 0 C1.98 0.99 1.98 0.99 4 2 C3.34 2 2.68 2 2 2 C2 4.64 2 7.28 2 10 C1.34 10 0.68 10 0 10 C0 6.7 0 3.4 0 0 Z " fill="#7D0C0B" transform="translate(297,139)"/>
<path d="M0 0 C3.53571429 0.53571429 3.53571429 0.53571429 5 2 C5.04092937 4.33297433 5.04241723 6.66705225 5 9 C4.34 9 3.68 9 3 9 C3 7.02 3 5.04 3 3 C1.35 2.67 -0.3 2.34 -2 2 C-1.34 1.34 -0.68 0.68 0 0 Z " fill="#282E1F" transform="translate(254,307)"/>
<path d="M0 0 C0.33 0 0.66 0 1 0 C0.88590407 1.45922693 0.75834456 2.91740598 0.625 4.375 C0.55539062 5.18710938 0.48578125 5.99921875 0.4140625 6.8359375 C0 9 0 9 -2 11 C-2.28571429 3.57142857 -2.28571429 3.57142857 0 0 Z " fill="#850A09" transform="translate(282,170)"/>
<path d="M0 0 C0 0.66 0 1.32 0 2 C-0.66 2 -1.32 2 -2 2 C-2.66 3.65 -3.32 5.3 -4 7 C-5.32 6.34 -6.64 5.68 -8 5 C-2.25 0 -2.25 0 0 0 Z " fill="#860C0C" transform="translate(233,137)"/>
<path d="M0 0 C0.66 0.33 1.32 0.66 2 1 C1.67 3.97 1.34 6.94 1 10 C0.34 9.67 -0.32 9.34 -1 9 C-1.09765625 2.84765625 -1.09765625 2.84765625 -1 1 C-0.67 0.67 -0.34 0.34 0 0 Z " fill="#EE9116" transform="translate(228,329)"/>
<path d="M0 0 C1.9375 0.6875 1.9375 0.6875 4 2 C4.75 4.625 4.75 4.625 5 7 C4.01 7 3.02 7 2 7 C1.87625 6.195625 1.7525 5.39125 1.625 4.5625 C1.315625 3.2940625 1.315625 3.2940625 1 2 C0.34 1.67 -0.32 1.34 -1 1 C-0.67 0.67 -0.34 0.34 0 0 Z " fill="#203B4A" transform="translate(242,287)"/>
<path d="M0 0 C6.57142857 5 6.57142857 5 8 10 C7.401875 9.360625 6.80375 8.72125 6.1875 8.0625 C4.09189663 5.79689611 4.09189663 5.79689611 1 5 C0.67 3.35 0.34 1.7 0 0 Z " fill="#820C0B" transform="translate(319,239)"/>
<path d="M0 0 C4.60272162 1.77027754 7.7129243 3.18699218 11 7 C7.21472479 6.48847632 5.55891312 5.79154158 3 3 C2.01 2.67 1.02 2.34 0 2 C0 1.34 0 0.68 0 0 Z " fill="#7F0B0C" transform="translate(263,135)"/>
<path d="M0 0 C1.5 1.375 1.5 1.375 3 3 C3 3.66 3 4.32 3 5 C0.03 4.505 0.03 4.505 -3 4 C-2.67 3.01 -2.34 2.02 -2 1 C-1.34 1.33 -0.68 1.66 0 2 C0 1.34 0 0.68 0 0 Z " fill="#930606" transform="translate(276,252)"/>
<path d="M0 0 C3.93673644 1.31224548 6.22719294 2.91910327 9 6 C5.21213403 5.4739075 2.82847776 4.61896089 0 2 C0 1.34 0 0.68 0 0 Z " fill="#840D0E" transform="translate(297,221)"/>
<path d="M0 0 C3.73884332 2.65654657 5.64978174 4.58110387 7 9 C3.46352496 7.32482761 2.2088437 6.50719183 0.6875 2.8125 C0.460625 1.884375 0.23375 0.95625 0 0 Z " fill="#7C0B0C" transform="translate(327,157)"/>
<path d="M0 0 C1.2380014 3.57644848 0.74926071 6.33694766 0 10 C-1.32 10 -2.64 10 -4 10 C-2.66666667 6.66666667 -1.33333333 3.33333333 0 0 Z " fill="#33301B" transform="translate(249,332)"/>
<path d="M0 0 C0.33 0 0.66 0 1 0 C2.125 5.625 2.125 5.625 1 9 C0.34 9 -0.32 9 -1 9 C-1.09765625 2.84765625 -1.09765625 2.84765625 -1 1 C-0.67 0.67 -0.34 0.34 0 0 Z " fill="#CC821C" transform="translate(245,297)"/>
<path d="M0 0 C2.33944736 0.28730055 4.6739143 0.61936779 7 1 C6.67 1.99 6.34 2.98 6 4 C5.67 3.34 5.34 2.68 5 2 C3.02 2.66 1.04 3.32 -1 4 C-1 1 -1 1 0 0 Z " fill="#8C0706" transform="translate(273,211)"/>
<path d="M0 0 C0.66 0 1.32 0 2 0 C1.875 1.875 1.875 1.875 1 4 C-2.0625 5.25 -2.0625 5.25 -5 6 C-5 4.35 -5 2.7 -5 1 C-4.34 1 -3.68 1 -3 1 C-3 1.66 -3 2.32 -3 3 C-2.01 3 -1.02 3 0 3 C0 2.01 0 1.02 0 0 Z " fill="#8B0607" transform="translate(207,272)"/>
</svg>
